<svg version="1.0" preserveAspectRatio="xMidYMid meet" height="264" viewBox="0 0 594.95996 198.749996" zoomAndPan="magnify" width="793" xmlns:xlink="http://www.w3.org/1999/xlink" xmlns="http://www.w3.org/2000/svg"><defs><filter id="221bc258a5" height="100%" width="100%" y="0%" x="0%"><feColorMatrix color-interpolation-filters="sRGB" values="0 0 0 0 1 0 0 0 0 1 0 0 0 0 1 0 0 0 1 0"></feColorMatrix></filter><g></g><clipPath id="86422568ba"><path clip-rule="nonzero" d="M 34.984375 48.792969 L 124.21875 48.792969 L 124.21875 141 L 34.984375 141 Z M 34.984375 48.792969"></path></clipPath><clipPath id="43eae90df0"><path clip-rule="nonzero" d="M 52.210938 48.792969 L 106.992188 48.792969 C 111.558594 48.792969 115.941406 50.609375 119.171875 53.839844 C 122.402344 57.070312 124.21875 61.453125 124.21875 66.023438 L 124.21875 123.640625 C 124.21875 128.207031 122.402344 132.589844 119.171875 135.820312 C 115.941406 139.054688 111.558594 140.867188 106.992188 140.867188 L 52.210938 140.867188 C 47.644531 140.867188 43.261719 139.054688 40.03125 135.820312 C 36.796875 132.589844 34.984375 128.207031 34.984375 123.640625 L 34.984375 66.023438 C 34.984375 61.453125 36.796875 57.070312 40.03125 53.839844 C 43.261719 50.609375 47.644531 48.792969 52.210938 48.792969 Z M 52.210938 48.792969"></path></clipPath><mask id="8c04e90333"><g filter="url(#221bc258a5)"><rect fill-opacity="0.9" height="238.499995" y="-19.875" fill="#000000" width="713.951952" x="-59.495996"></rect></g></mask><clipPath id="6a5c0161d8"><path clip-rule="nonzero" d="M 0.105469 0.902344 L 74 0.902344 L 74 72.382812 L 0.105469 72.382812 Z M 0.105469 0.902344"></path></clipPath><clipPath id="c528d7cd6c"><path clip-rule="nonzero" d="M 17.539062 0.917969 L 56.597656 0.917969 C 61.167969 0.917969 65.550781 2.734375 68.78125 5.964844 C 72.011719 9.195312 73.828125 13.578125 73.828125 18.148438 L 73.828125 55.152344 C 73.828125 59.722656 72.011719 64.105469 68.78125 67.335938 C 65.550781 70.566406 61.167969 72.382812 56.597656 72.382812 L 17.539062 72.382812 C 12.96875 72.382812 8.585938 70.566406 5.355469 67.335938 C 2.125 64.105469 0.308594 59.722656 0.308594 55.152344 L 0.308594 18.148438 C 0.308594 13.578125 2.125 9.195312 5.355469 5.964844 C 8.585938 2.734375 12.96875 0.917969 17.539062 0.917969 Z M 17.539062 0.917969"></path></clipPath><clipPath id="d308ea8092"><rect height="73" y="0" width="75" x="0"></rect></clipPath></defs><g clip-path="url(#86422568ba)"><g clip-path="url(#43eae90df0)"><path fill-rule="nonzero" fill-opacity="1" d="M 34.984375 48.792969 L 124.21875 48.792969 L 124.21875 140.820312 L 34.984375 140.820312 Z M 34.984375 48.792969" fill="#00c9ff"></path></g></g><g mask="url(#8c04e90333)"><g transform="matrix(1, 0, 0, 1, 70, 77)"><g clip-path="url(#d308ea8092)"><g clip-path="url(#6a5c0161d8)"><g clip-path="url(#c528d7cd6c)"><path fill-rule="nonzero" fill-opacity="1" d="M 0.308594 0.917969 L 73.726562 0.917969 L 73.726562 72.382812 L 0.308594 72.382812 Z M 0.308594 0.917969" fill="#6d36db"></path></g></g></g></g></g><g fill-opacity="1" fill="#ffffff"><g transform="translate(159.845825, 116.463493)"><g><path d="M 3.9375 -54.15625 L 23.703125 -54.15625 C 29.210938 -54.15625 33.671875 -52.734375 37.078125 -49.890625 C 40.492188 -47.046875 42.203125 -42.910156 42.203125 -37.484375 C 42.203125 -32.054688 40.472656 -27.800781 37.015625 -24.71875 C 33.554688 -21.632812 29.117188 -20.09375 23.703125 -20.09375 L 16.28125 -20.09375 L 16.28125 0 L 3.9375 0 Z M 16.28125 -29.9375 L 19.765625 -29.9375 C 22.515625 -29.9375 24.773438 -30.492188 26.546875 -31.609375 C 28.316406 -32.722656 29.203125 -34.550781 29.203125 -37.09375 C 29.203125 -39.664062 28.316406 -41.507812 26.546875 -42.625 C 24.773438 -43.75 22.515625 -44.3125 19.765625 -44.3125 L 16.28125 -44.3125 Z M 16.28125 -29.9375"></path></g></g></g><g fill-opacity="1" fill="#ffffff"><g transform="translate(203.562786, 116.463493)"><g><path d="M 7.125 -4 C 3.382812 -7.332031 1.515625 -11.597656 1.515625 -16.796875 C 1.515625 -22.003906 3.457031 -26.28125 7.34375 -29.625 C 11.238281 -32.976562 16.054688 -34.65625 21.796875 -34.65625 C 27.441406 -34.65625 32.195312 -32.96875 36.0625 -29.59375 C 39.9375 -26.226562 41.875 -21.960938 41.875 -16.796875 C 41.875 -11.640625 39.976562 -7.382812 36.1875 -4.03125 C 32.40625 -0.6875 27.609375 0.984375 21.796875 0.984375 C 15.753906 0.984375 10.863281 -0.675781 7.125 -4 Z M 16.109375 -22.515625 C 14.597656 -21.023438 13.84375 -19.117188 13.84375 -16.796875 C 13.84375 -14.484375 14.566406 -12.59375 16.015625 -11.125 C 17.460938 -9.65625 19.367188 -8.921875 21.734375 -8.921875 C 24.003906 -8.921875 25.867188 -9.664062 27.328125 -11.15625 C 28.796875 -12.644531 29.53125 -14.523438 29.53125 -16.796875 C 29.53125 -19.117188 28.773438 -21.023438 27.265625 -22.515625 C 25.765625 -24.003906 23.921875 -24.75 21.734375 -24.75 C 19.492188 -24.75 17.617188 -24.003906 16.109375 -22.515625 Z M 16.109375 -22.515625"></path></g></g></g><g fill-opacity="1" fill="#ffffff"><g transform="translate(246.951535, 116.463493)"><g><path d="M 18.578125 -34.65625 C 20.503906 -34.65625 22.40625 -34.4375 24.28125 -34 C 26.164062 -33.5625 27.566406 -33.125 28.484375 -32.6875 L 29.859375 -32.03125 L 26.0625 -24.421875 C 23.4375 -25.816406 20.941406 -26.515625 18.578125 -26.515625 C 17.265625 -26.515625 16.332031 -26.375 15.78125 -26.09375 C 15.238281 -25.8125 14.96875 -25.273438 14.96875 -24.484375 C 14.96875 -24.304688 14.988281 -24.128906 15.03125 -23.953125 C 15.070312 -23.785156 15.15625 -23.625 15.28125 -23.46875 C 15.414062 -23.3125 15.535156 -23.175781 15.640625 -23.0625 C 15.753906 -22.957031 15.941406 -22.835938 16.203125 -22.703125 C 16.472656 -22.578125 16.679688 -22.476562 16.828125 -22.40625 C 16.984375 -22.34375 17.234375 -22.242188 17.578125 -22.109375 C 17.929688 -21.984375 18.195312 -21.890625 18.375 -21.828125 C 18.550781 -21.765625 18.847656 -21.664062 19.265625 -21.53125 C 19.679688 -21.394531 20 -21.304688 20.21875 -21.265625 C 21.570312 -20.867188 22.75 -20.429688 23.75 -19.953125 C 24.757812 -19.472656 25.820312 -18.816406 26.9375 -17.984375 C 28.0625 -17.148438 28.925781 -16.097656 29.53125 -14.828125 C 30.144531 -13.566406 30.453125 -12.125 30.453125 -10.5 C 30.453125 -2.84375 25.132812 0.984375 14.5 0.984375 C 12.09375 0.984375 9.804688 0.613281 7.640625 -0.125 C 5.472656 -0.875 3.910156 -1.617188 2.953125 -2.359375 L 1.515625 -3.546875 L 6.234375 -11.484375 C 6.585938 -11.179688 7.046875 -10.820312 7.609375 -10.40625 C 8.179688 -9.988281 9.210938 -9.414062 10.703125 -8.6875 C 12.191406 -7.96875 13.484375 -7.609375 14.578125 -7.609375 C 16.984375 -7.609375 18.1875 -8.421875 18.1875 -10.046875 C 18.1875 -10.785156 17.878906 -11.363281 17.265625 -11.78125 C 16.648438 -12.195312 15.609375 -12.664062 14.140625 -13.1875 C 12.679688 -13.71875 11.535156 -14.203125 10.703125 -14.640625 C 8.597656 -15.734375 6.929688 -16.96875 5.703125 -18.34375 C 4.484375 -19.726562 3.875 -21.554688 3.875 -23.828125 C 3.875 -27.242188 5.195312 -29.898438 7.84375 -31.796875 C 10.488281 -33.703125 14.066406 -34.65625 18.578125 -34.65625 Z M 18.578125 -34.65625"></path></g></g></g><g fill-opacity="1" fill="#ffffff"><g transform="translate(279.246944, 116.463493)"><g><path d="M 5.90625 -33.671875 L 5.90625 -46.21875 L 17.53125 -46.21875 L 17.53125 -33.671875 L 24.609375 -33.671875 L 24.609375 -24.8125 L 17.53125 -24.8125 L 17.53125 -14.109375 C 17.53125 -11.003906 18.40625 -9.453125 20.15625 -9.453125 C 20.59375 -9.453125 21.050781 -9.539062 21.53125 -9.71875 C 22.007812 -9.894531 22.378906 -10.066406 22.640625 -10.234375 L 23.046875 -10.5 L 25.921875 -1.109375 C 23.429688 0.285156 20.585938 0.984375 17.390625 0.984375 C 15.203125 0.984375 13.320312 0.601562 11.75 -0.15625 C 10.175781 -0.925781 8.984375 -1.957031 8.171875 -3.25 C 7.359375 -4.539062 6.773438 -5.894531 6.421875 -7.3125 C 6.078125 -8.738281 5.90625 -10.257812 5.90625 -11.875 L 5.90625 -24.8125 L 1.046875 -24.8125 L 1.046875 -33.671875 Z M 5.90625 -33.671875"></path></g></g></g><g fill-opacity="1" fill="#ffffff"><g transform="translate(305.175174, 116.463493)"><g><path d="M 3.9375 -54.15625 L 23.296875 -54.15625 C 28.503906 -54.15625 32.75 -52.765625 36.03125 -49.984375 C 39.3125 -47.203125 40.953125 -43.234375 40.953125 -38.078125 C 40.953125 -34.085938 39.957031 -30.75 37.96875 -28.0625 C 35.976562 -25.375 33.273438 -23.484375 29.859375 -22.390625 L 48.515625 0 L 32.828125 0 L 16.28125 -21.40625 L 16.28125 0 L 3.9375 0 Z M 16.28125 -30.125 L 17.71875 -30.125 C 18.851562 -30.125 19.816406 -30.144531 20.609375 -30.1875 C 21.398438 -30.238281 22.296875 -30.394531 23.296875 -30.65625 C 24.304688 -30.914062 25.117188 -31.285156 25.734375 -31.765625 C 26.347656 -32.242188 26.875 -32.941406 27.3125 -33.859375 C 27.75 -34.785156 27.96875 -35.90625 27.96875 -37.21875 C 27.96875 -38.53125 27.75 -39.644531 27.3125 -40.5625 C 26.875 -41.476562 26.347656 -42.175781 25.734375 -42.65625 C 25.117188 -43.144531 24.304688 -43.519531 23.296875 -43.78125 C 22.296875 -44.039062 21.398438 -44.191406 20.609375 -44.234375 C 19.816406 -44.285156 18.851562 -44.3125 17.71875 -44.3125 L 16.28125 -44.3125 Z M 16.28125 -30.125"></path></g></g></g><g fill-opacity="1" fill="#ffffff"><g transform="translate(352.174185, 116.463493)"><g><path d="M 38 -15.234375 L 13.59375 -15.234375 C 13.59375 -12.867188 14.359375 -11.113281 15.890625 -9.96875 C 17.421875 -8.832031 19.082031 -8.265625 20.875 -8.265625 C 22.757812 -8.265625 24.25 -8.515625 25.34375 -9.015625 C 26.4375 -9.523438 27.679688 -10.523438 29.078125 -12.015625 L 37.484375 -7.8125 C 33.984375 -1.945312 28.160156 0.984375 20.015625 0.984375 C 14.941406 0.984375 10.585938 -0.753906 6.953125 -4.234375 C 3.328125 -7.710938 1.515625 -11.898438 1.515625 -16.796875 C 1.515625 -21.703125 3.328125 -25.90625 6.953125 -29.40625 C 10.585938 -32.90625 14.941406 -34.65625 20.015625 -34.65625 C 25.359375 -34.65625 29.703125 -33.113281 33.046875 -30.03125 C 36.398438 -26.945312 38.078125 -22.535156 38.078125 -16.796875 C 38.078125 -16.015625 38.050781 -15.492188 38 -15.234375 Z M 13.921875 -21.65625 L 26.71875 -21.65625 C 26.457031 -23.40625 25.765625 -24.75 24.640625 -25.6875 C 23.523438 -26.632812 22.09375 -27.109375 20.34375 -27.109375 C 18.414062 -27.109375 16.882812 -26.601562 15.75 -25.59375 C 14.613281 -24.59375 14.003906 -23.28125 13.921875 -21.65625 Z M 13.921875 -21.65625"></path></g></g></g><g fill-opacity="1" fill="#ffffff"><g transform="translate(391.755751, 116.463493)"><g><path d="M 6.234375 -4.171875 C 3.085938 -7.609375 1.515625 -11.816406 1.515625 -16.796875 C 1.515625 -21.785156 3.085938 -26.007812 6.234375 -29.46875 C 9.390625 -32.925781 13.394531 -34.65625 18.25 -34.65625 C 22.707031 -34.65625 26.382812 -33.253906 29.28125 -30.453125 L 29.28125 -33.671875 L 40.890625 -33.671875 L 40.890625 0 L 29.40625 0 L 29.40625 -3.8125 L 29.28125 -3.8125 C 26.382812 -0.613281 22.707031 0.984375 18.25 0.984375 C 13.394531 0.984375 9.390625 -0.734375 6.234375 -4.171875 Z M 16.109375 -22.515625 C 14.597656 -21.023438 13.84375 -19.117188 13.84375 -16.796875 C 13.84375 -14.484375 14.566406 -12.59375 16.015625 -11.125 C 17.460938 -9.65625 19.367188 -8.921875 21.734375 -8.921875 C 24.003906 -8.921875 25.867188 -9.664062 27.328125 -11.15625 C 28.796875 -12.644531 29.53125 -14.523438 29.53125 -16.796875 C 29.53125 -19.117188 28.773438 -21.023438 27.265625 -22.515625 C 25.765625 -24.003906 23.921875 -24.75 21.734375 -24.75 C 19.492188 -24.75 17.617188 -24.003906 16.109375 -22.515625 Z M 16.109375 -22.515625"></path></g></g></g><g fill-opacity="1" fill="#ffffff"><g transform="translate(436.588613, 116.463493)"><g><path d="M 21.859375 -25.140625 C 19.671875 -25.140625 17.785156 -24.328125 16.203125 -22.703125 C 14.628906 -21.085938 13.84375 -19.144531 13.84375 -16.875 C 13.84375 -14.550781 14.628906 -12.578125 16.203125 -10.953125 C 17.785156 -9.335938 19.671875 -8.53125 21.859375 -8.53125 C 22.910156 -8.53125 23.90625 -8.660156 24.84375 -8.921875 C 25.78125 -9.191406 26.46875 -9.457031 26.90625 -9.71875 L 27.5 -10.109375 L 31.4375 -2.03125 C 31.132812 -1.8125 30.707031 -1.535156 30.15625 -1.203125 C 29.613281 -0.878906 28.367188 -0.4375 26.421875 0.125 C 24.472656 0.695312 22.382812 0.984375 20.15625 0.984375 C 15.207031 0.984375 10.863281 -0.753906 7.125 -4.234375 C 3.382812 -7.710938 1.515625 -11.878906 1.515625 -16.734375 C 1.515625 -21.640625 3.382812 -25.851562 7.125 -29.375 C 10.863281 -32.894531 15.207031 -34.65625 20.15625 -34.65625 C 22.382812 -34.65625 24.4375 -34.390625 26.3125 -33.859375 C 28.195312 -33.335938 29.535156 -32.816406 30.328125 -32.296875 L 31.4375 -31.5 L 27.5 -23.5625 C 26.0625 -24.613281 24.179688 -25.140625 21.859375 -25.140625 Z M 21.859375 -25.140625"></path></g></g></g><g fill-opacity="1" fill="#ffffff"><g transform="translate(468.818387, 116.463493)"><g><path d="M 3.9375 0 L 3.9375 -56.453125 L 15.5625 -56.453125 L 15.5625 -30.125 L 15.6875 -30.125 C 18.707031 -33.144531 21.925781 -34.65625 25.34375 -34.65625 C 27 -34.65625 28.644531 -34.4375 30.28125 -34 C 31.925781 -33.5625 33.503906 -32.882812 35.015625 -31.96875 C 36.523438 -31.050781 37.75 -29.75 38.6875 -28.0625 C 39.632812 -26.375 40.109375 -24.414062 40.109375 -22.1875 L 40.109375 0 L 28.484375 0 L 28.484375 -19.03125 C 28.484375 -20.78125 27.925781 -22.3125 26.8125 -23.625 C 25.695312 -24.9375 24.242188 -25.59375 22.453125 -25.59375 C 20.703125 -25.59375 19.113281 -24.914062 17.6875 -23.5625 C 16.269531 -22.207031 15.5625 -20.695312 15.5625 -19.03125 L 15.5625 0 Z M 3.9375 0"></path></g></g></g><g fill-opacity="1" fill="#ffffff"><g transform="translate(515.49572, 125.502805)"><g><path d="M 15.265625 -26.296875 L 25.875 0 L 19.4375 0 L 17.5 -5.265625 L 7.484375 -5.265625 L 5.546875 0 L -0.890625 0 L 9.71875 -26.296875 Z M 15.453125 -10.515625 L 12.53125 -18.171875 L 12.46875 -18.171875 L 9.53125 -10.515625 Z M 15.453125 -10.515625"></path></g></g></g><g fill-opacity="1" fill="#ffffff"><g transform="translate(540.470153, 125.502805)"><g><path d="M 7.90625 -26.296875 L 7.90625 0 L 1.90625 0 L 1.90625 -26.296875 Z M 7.90625 -26.296875"></path></g></g></g></svg>